<?xml version="1.0" encoding="UTF-8" standalone="no"?>
<svg
   xmlns:dc="http://purl.org/dc/elements/1.1/"
   xmlns:cc="http://creativecommons.org/ns#"
   xmlns:rdf="http://www.w3.org/1999/02/22-rdf-syntax-ns#"
   xmlns:svg="http://www.w3.org/2000/svg"
   xmlns="http://www.w3.org/2000/svg"
   xmlns:sodipodi="http://sodipodi.sourceforge.net/DTD/sodipodi-0.dtd"
   xmlns:inkscape="http://www.inkscape.org/namespaces/inkscape"
   version="1.0"
   width="75.000015pt"
   height="114.60426pt"
   viewBox="0 0 75.000015 114.60426"
   preserveAspectRatio="xMidYMid meet"
   id="svg7004"
   sodipodi:docname="candado-abierto.svg"
   inkscape:version="0.92.2 2405546, 2018-03-11">
  <defs
     id="defs7008" />
  <sodipodi:namedview
     pagecolor="#ffffff"
     bordercolor="#666666"
     borderopacity="1"
     objecttolerance="10"
     gridtolerance="10"
     guidetolerance="10"
     inkscape:pageopacity="0"
     inkscape:pageshadow="2"
     inkscape:window-width="1920"
     inkscape:window-height="1027"
     id="namedview7006"
     showgrid="false"
     inkscape:zoom="0.49277344"
     inkscape:cx="553.94134"
     inkscape:cy="-697.28887"
     inkscape:window-x="0"
     inkscape:window-y="0"
     inkscape:window-maximized="1"
     inkscape:current-layer="svg7004" />
  <metadata
     id="metadata6998">
Created by potrace 1.15, written by Peter Selinger 2001-2017
<rdf:RDF>
  <cc:Work
     rdf:about="">
    <dc:format>image/svg+xml</dc:format>
    <dc:type
       rdf:resource="http://purl.org/dc/dcmitype/StillImage" />
    <dc:title></dc:title>
  </cc:Work>
</rdf:RDF>
</metadata>
  <g
     transform="matrix(0.00895699,0,0,-0.00895699,-0.04478495,114.61863)"
     id="g7002"
     style="fill:#000000;stroke:none">
    <path
       d="m 5925,12794 c -568,-60 -1036,-276 -1416,-654 -341,-339 -547,-740 -642,-1245 -20,-107 -21,-148 -24,-1452 L 3839,8100 1922,8098 5,8095 V 6025 3955 l 1128,-5 1128,-5 -1,-315 c 0,-173 -3,-345 -7,-381 l -6,-66 h -96 c -109,1 -151,-14 -170,-61 -12,-28 -7,-51 18,-92 5,-8 26,-66 46,-129 20,-63 63,-181 96,-264 33,-82 59,-150 57,-152 -2,-1 -39,-23 -83,-50 -304,-182 -515,-471 -610,-836 -21,-83 -28,-136 -32,-258 -8,-228 21,-391 104,-574 70,-154 139,-256 256,-376 502,-515 1321,-520 1828,-10 148,149 254,323 325,536 52,153 68,254 67,423 -1,277 -77,505 -242,728 -103,139 -267,288 -419,381 -28,18 -52,39 -52,46 0,8 18,87 40,176 61,248 101,453 103,532 l 2,70 -143,71 c -160,79 -148,63 -127,162 7,30 1,36 -147,164 -84,74 -155,135 -157,136 -1,2 2,34 9,73 l 12,71 h 1048 c 954,0 1049,1 1061,16 20,25 21,4093 0,4117 -12,15 -45,17 -292,17 h -279 v 1264 c 0,1065 2,1283 15,1378 65,496 344,924 775,1191 282,174 649,259 983,229 411,-38 735,-188 1023,-476 278,-279 430,-595 473,-988 7,-59 11,-348 11,-727 v -630 l 22,-20 c 72,-68 325,-89 480,-41 76,23 108,44 108,71 0,10 5,19 11,19 7,0 9,207 6,703 -5,755 -5,758 -62,994 -216,896 -949,1565 -1870,1708 -97,15 -438,27 -520,19 z M 2855,1193 c 109,-38 209,-146 235,-254 39,-160 -42,-339 -176,-389 -194,-72 -397,2 -495,182 -32,60 -34,68 -34,163 0,118 15,155 90,224 100,92 247,121 380,74 z m 215,-120 c 43,-59 70,-141 70,-208 0,-60 -17,-142 -31,-151 -4,-2 -2,17 6,43 18,58 19,104 4,175 -15,72 -42,121 -97,181 -38,40 -41,46 -15,27 17,-12 46,-42 63,-67 z"
       id="path7000"
       inkscape:connector-curvature="0" />
  </g>
</svg>
