<?xml version="1.0" encoding="UTF-8" standalone="no"?>
<svg
   xmlns:dc="http://purl.org/dc/elements/1.1/"
   xmlns:cc="http://creativecommons.org/ns#"
   xmlns:rdf="http://www.w3.org/1999/02/22-rdf-syntax-ns#"
   xmlns:svg="http://www.w3.org/2000/svg"
   xmlns="http://www.w3.org/2000/svg"
   xmlns:sodipodi="http://sodipodi.sourceforge.net/DTD/sodipodi-0.dtd"
   xmlns:inkscape="http://www.inkscape.org/namespaces/inkscape"
   version="1.0"
   width="75.000008pt"
   height="130.41092pt"
   viewBox="0 0 75.000008 130.41092"
   preserveAspectRatio="xMidYMid meet"
   id="svg6050"
   sodipodi:docname="idea.svg"
   inkscape:version="0.92.2 2405546, 2018-03-11">
  <defs
     id="defs6054" />
  <sodipodi:namedview
     pagecolor="#ffffff"
     bordercolor="#666666"
     borderopacity="1"
     objecttolerance="10"
     gridtolerance="10"
     guidetolerance="10"
     inkscape:pageopacity="0"
     inkscape:pageshadow="2"
     inkscape:window-width="1920"
     inkscape:window-height="1027"
     id="namedview6052"
     showgrid="false"
     inkscape:zoom="0.49277344"
     inkscape:cx="490.62905"
     inkscape:cy="853.06413"
     inkscape:window-x="0"
     inkscape:window-y="0"
     inkscape:window-maximized="1"
     inkscape:current-layer="svg6050" />
  <metadata
     id="metadata6036">
Created by potrace 1.15, written by Peter Selinger 2001-2017
<rdf:RDF>
  <cc:Work
     rdf:about="">
    <dc:format>image/svg+xml</dc:format>
    <dc:type
       rdf:resource="http://purl.org/dc/dcmitype/StillImage" />
    <dc:title></dc:title>
  </cc:Work>
</rdf:RDF>
</metadata>
  <g
     transform="matrix(0.01019237,0,0,-0.01019237,-0.00287546,130.4315)"
     id="g6048"
     style="fill:#000000;stroke:none">
    <path
       d="m 3450,12794 c -19,-2 -84,-9 -145,-14 -522,-50 -1078,-239 -1535,-522 C 1126,11860 618,11276 316,10590 42,9966 -60,9251 35,8615 c 29,-195 135,-675 155,-700 5,-5 25,-55 45,-110 52,-142 179,-397 275,-555 96,-157 482,-831 593,-1035 378,-694 570,-1288 669,-2065 16,-129 22,-249 27,-550 6,-362 8,-389 28,-443 32,-86 70,-145 132,-208 71,-70 149,-114 247,-139 75,-19 113,-20 1464,-20 1349,0 1389,1 1464,20 183,47 320,173 384,354 23,67 25,88 33,361 11,395 33,645 85,960 97,585 283,1117 588,1685 101,187 531,943 566,995 106,157 260,449 324,615 20,52 43,109 51,125 36,75 141,561 170,785 9,69 19,211 22,315 27,870 -263,1727 -820,2424 -128,159 -396,428 -552,552 -558,446 -1173,706 -1880,795 -113,14 -578,27 -655,18 z"
       id="path6038"
       inkscape:connector-curvature="0" />
    <path
       d="m 2003,2652 c -67,-24 -118,-64 -154,-121 -40,-62 -52,-113 -47,-192 8,-112 68,-198 178,-252 l 45,-22 h 1655 1655 l 45,22 c 68,34 112,75 145,134 27,49 30,63 30,144 0,74 -4,97 -23,132 -35,66 -79,110 -140,140 l -57,28 -1640,2 c -1554,2 -1643,2 -1692,-15 z"
       id="path6040"
       inkscape:connector-curvature="0" />
    <path
       d="m 2003,1922 c -67,-24 -118,-64 -154,-121 -40,-62 -52,-113 -47,-192 8,-112 68,-198 178,-252 l 45,-22 h 1655 1655 l 45,22 c 68,34 112,75 145,134 27,49 30,63 30,144 0,74 -4,97 -23,132 -35,66 -79,110 -140,140 l -57,28 -1640,2 c -1554,2 -1643,2 -1692,-15 z"
       id="path6042"
       inkscape:connector-curvature="0" />
    <path
       d="m 1994,1189 c -201,-77 -260,-342 -109,-493 24,-24 65,-54 92,-67 l 48,-24 h 1655 1655 l 48,24 c 244,121 232,467 -20,561 -53,20 -75,20 -1686,19 -1594,0 -1633,0 -1683,-20 z"
       id="path6044"
       inkscape:connector-curvature="0" />
    <path
       d="M 2611,463 C 2819,193 3094,49 3477,9 c 128,-13 373,-7 483,11 276,46 481,144 650,310 48,47 97,100 109,118 l 22,32 H 3669 c -1019,0 -1071,-1 -1058,-17 z"
       id="path6046"
       inkscape:connector-curvature="0" />
  </g>
</svg>
