<?xml version="1.0" encoding="UTF-8" standalone="no"?>
<svg
   xmlns:dc="http://purl.org/dc/elements/1.1/"
   xmlns:cc="http://creativecommons.org/ns#"
   xmlns:rdf="http://www.w3.org/1999/02/22-rdf-syntax-ns#"
   xmlns:svg="http://www.w3.org/2000/svg"
   xmlns="http://www.w3.org/2000/svg"
   xmlns:sodipodi="http://sodipodi.sourceforge.net/DTD/sodipodi-0.dtd"
   xmlns:inkscape="http://www.inkscape.org/namespaces/inkscape"
   version="1.0"
   width="74.999947pt"
   height="80.814766pt"
   viewBox="0 0 74.999947 80.814766"
   preserveAspectRatio="xMidYMid meet"
   id="svg3468"
   sodipodi:docname="logo.svg"
   inkscape:version="0.92.2 2405546, 2018-03-11">
  <defs
     id="defs3472" />
  <sodipodi:namedview
     pagecolor="#ffffff"
     bordercolor="#666666"
     borderopacity="1"
     objecttolerance="10"
     gridtolerance="10"
     guidetolerance="10"
     inkscape:pageopacity="0"
     inkscape:pageshadow="2"
     inkscape:window-width="1920"
     inkscape:window-height="1027"
     id="namedview3470"
     showgrid="false"
     inkscape:zoom="0.49277344"
     inkscape:cx="792.13333"
     inkscape:cy="853.09692"
     inkscape:window-x="0"
     inkscape:window-y="0"
     inkscape:window-maximized="1"
     inkscape:current-layer="svg3468" />
  <metadata
     id="metadata3462">
Created by potrace 1.15, written by Peter Selinger 2001-2017
<rdf:RDF>
  <cc:Work
     rdf:about="">
    <dc:format>image/svg+xml</dc:format>
    <dc:type
       rdf:resource="http://purl.org/dc/dcmitype/StillImage" />
    <dc:title></dc:title>
  </cc:Work>
</rdf:RDF>
</metadata>
  <g
     transform="matrix(0.00631512,0,0,-0.00631512,0.00631512,80.825958)"
     id="g3466"
     style="fill:#022037;stroke:none">
    <path
       d="m 11695,12793 c -119,-26 -272,-93 -810,-350 -492,-236 -619,-295 -830,-385 -667,-286 -1214,-451 -1685,-507 -246,-30 -303,-39 -437,-72 C 7304,11326 6612,10929 5900,10311 5416,9891 4981,9443 4367,8735 4248,8598 4095,8427 4028,8355 3673,7975 3353,7539 2965,6905 2526,6187 2448,6062 2342,5900 2279,5804 2177,5644 2115,5545 2053,5446 1928,5249 1837,5108 1465,4532 1312,4265 1167,3940 1051,3679 916,3293 880,3120 869,3065 846,3002 817,2943 635,2581 433,2074 326,1708 247,1440 180,1146 180,1071 c 0,-31 -8,-45 -56,-91 C 94,950 53,904 34,878 L -1,831 25,768 C 98,588 226,486 394,473 c 59,-5 86,-1 142,17 135,44 246,114 348,218 27,28 54,48 61,45 21,-8 83,30 215,132 292,224 449,325 504,325 51,0 157,-71 340,-229 178,-153 217,-193 391,-401 261,-310 380,-421 540,-500 102,-51 176,-70 295,-77 177,-10 377,41 615,157 267,130 481,292 902,682 147,136 684,686 768,786 15,17 30,32 35,32 4,0 11,-42 14,-92 4,-51 16,-154 26,-228 51,-364 130,-585 274,-766 57,-71 75,-86 148,-123 118,-60 208,-81 348,-81 221,0 459,84 789,278 95,56 645,416 1221,799 621,412 844,533 996,537 77,2 95,-13 156,-130 46,-88 64,-113 123,-164 312,-269 678,-190 791,170 8,25 17,84 21,132 6,84 5,89 -22,130 -64,97 -125,155 -214,201 -188,99 -360,134 -606,124 -367,-14 -773,-142 -1340,-422 -422,-208 -1038,-565 -1430,-826 l -220,-147 -27,53 c -62,120 -92,295 -108,630 -12,251 -22,342 -51,452 -45,173 -116,301 -219,396 -188,174 -436,166 -722,-22 C 5336,2454 5239,2360 4907,1995 4255,1275 3891,928 3554,704 c -119,-79 -118,-80 -229,86 -126,189 -211,296 -345,434 -264,271 -507,437 -764,521 -144,47 -230,60 -401,60 -278,0 -491,-56 -763,-202 -46,-25 -85,-43 -88,-41 -5,6 51,212 112,413 34,112 169,508 178,522 1,1 46,-5 101,-14 164,-25 389,-9 585,42 181,47 555,219 609,281 37,42 41,89 10,127 -33,43 -78,51 -215,38 -65,-6 -195,-18 -289,-27 -269,-25 -526,-7 -574,41 -12,12 -11,21 7,62 l 20,48 94,13 c 471,63 1553,201 1978,252 96,12 254,25 350,30 190,10 283,29 396,80 182,82 273,184 520,583 142,230 234,338 412,480 219,177 386,332 1237,1152 1089,1049 1317,1250 1550,1367 453,228 1413,801 2065,1233 630,417 1021,717 1283,981 184,186 242,280 287,458 81,322 93,687 41,1286 -37,427 -42,501 -42,719 -1,372 39,592 158,869 51,120 51,151 0,183 -31,18 -92,23 -142,12 z M 6741,1000 c 20,-11 25,-36 11,-57 -6,-9 -18,-4 -45,18 -20,17 -37,35 -37,40 0,12 47,12 71,-1 z"
       id="path3464"
       inkscape:connector-curvature="0" />
  </g>
</svg>
