<?xml version="1.0" encoding="UTF-8" standalone="no"?>
<svg
   xmlns:dc="http://purl.org/dc/elements/1.1/"
   xmlns:cc="http://creativecommons.org/ns#"
   xmlns:rdf="http://www.w3.org/1999/02/22-rdf-syntax-ns#"
   xmlns:svg="http://www.w3.org/2000/svg"
   xmlns="http://www.w3.org/2000/svg"
   xmlns:sodipodi="http://sodipodi.sourceforge.net/DTD/sodipodi-0.dtd"
   xmlns:inkscape="http://www.inkscape.org/namespaces/inkscape"
   version="1.0"
   width="75.000023pt"
   height="74.882652pt"
   viewBox="0 0 75.000023 74.882652"
   preserveAspectRatio="xMidYMid meet"
   id="svg4580"
   sodipodi:docname="lupa.svg"
   inkscape:version="0.92.2 2405546, 2018-03-11">
  <defs
     id="defs4584" />
  <sodipodi:namedview
     pagecolor="#ffffff"
     bordercolor="#666666"
     borderopacity="1"
     objecttolerance="10"
     gridtolerance="10"
     guidetolerance="10"
     inkscape:pageopacity="0"
     inkscape:pageshadow="2"
     inkscape:window-width="1920"
     inkscape:window-height="1027"
     id="namedview4582"
     showgrid="false"
     inkscape:zoom="0.49277344"
     inkscape:cx="707.3"
     inkscape:cy="737.86669"
     inkscape:window-x="0"
     inkscape:window-y="0"
     inkscape:window-maximized="1"
     inkscape:current-layer="svg4580" />
  <metadata
     id="metadata4574">
Created by potrace 1.15, written by Peter Selinger 2001-2017
<rdf:RDF>
  <cc:Work
     rdf:about="">
    <dc:format>image/svg+xml</dc:format>
    <dc:type
       rdf:resource="http://purl.org/dc/dcmitype/StillImage" />
    <dc:title></dc:title>
  </cc:Work>
</rdf:RDF>
</metadata>
  <g
     transform="matrix(0.00685826,0,0,-0.00685826,-7.5115093,80.821907)"
     id="g4578"
     style="fill:#022037;stroke:none">
    <path
       d="m 4967,11784 c -1,-1 -69,-5 -152,-8 -82,-4 -166,-8 -185,-10 -50,-5 -152,-18 -170,-21 -8,-1 -40,-6 -70,-10 -30,-4 -64,-9 -75,-11 -11,-3 -42,-9 -70,-15 -44,-9 -88,-18 -120,-23 -5,-1 -16,-5 -22,-9 -7,-5 -13,-6 -13,-3 0,3 -23,-2 -52,-10 -28,-9 -60,-18 -70,-20 -10,-2 -28,-6 -39,-9 -25,-5 -87,-24 -109,-32 -8,-4 -18,-7 -22,-8 -5,-2 -10,-4 -13,-5 -3,-1 -8,-3 -12,-5 -5,-1 -15,-4 -23,-8 -8,-3 -40,-13 -70,-23 -30,-9 -71,-24 -90,-32 -19,-9 -37,-16 -40,-17 -3,-1 -22,-9 -44,-18 -21,-9 -41,-17 -44,-17 -9,0 -295,-138 -332,-160 -8,-5 -53,-32 -100,-59 -646,-373 -1194,-958 -1529,-1630 -203,-406 -328,-833 -387,-1321 -25,-202 -25,-647 0,-850 131,-1075 627,-1966 1470,-2645 222,-178 543,-371 821,-495 28,-12 64,-28 80,-36 100,-45 491,-175 565,-188 14,-2 43,-9 65,-14 54,-15 306,-60 375,-67 30,-4 66,-8 80,-11 152,-24 728,-24 856,0 10,2 48,7 84,11 36,4 74,9 85,11 11,2 34,7 50,10 17,2 44,7 60,11 17,3 39,7 50,8 49,8 127,25 134,29 4,3 23,8 42,11 34,6 350,99 379,112 8,3 17,7 20,8 3,1 18,7 33,13 16,7 33,12 38,12 5,0 17,4 27,10 9,5 35,16 57,26 102,42 388,181 440,214 17,11 44,26 60,35 47,24 155,95 284,186 l 44,31 277,-277 277,-277 -23,-67 c -64,-184 -58,-402 15,-586 66,-165 51,-148 1199,-1298 593,-594 1106,-1102 1142,-1131 193,-156 405,-230 655,-230 78,0 114,3 210,19 63,10 171,48 275,98 166,79 462,372 564,558 198,360 162,809 -91,1139 -70,92 -2231,2243 -2293,2282 -62,40 -99,58 -182,88 -56,21 -66,23 -143,37 -91,16 -264,8 -342,-16 -18,-5 -33,-7 -33,-4 0,3 -7,0 -15,-7 -8,-7 -15,-9 -15,-5 0,4 -6,3 -12,-2 -7,-6 -27,-15 -44,-21 l -31,-10 -272,272 c -149,149 -271,275 -271,281 0,5 38,65 84,134 375,560 593,1193 647,1881 14,181 6,566 -16,750 -102,850 -479,1640 -1075,2254 -204,210 -428,396 -655,543 -55,36 -112,74 -127,84 -15,10 -29,19 -32,19 -3,0 -38,19 -78,43 -69,40 -240,126 -318,160 -19,9 -55,24 -80,35 -111,49 -385,145 -440,155 -14,3 -68,17 -120,31 -80,22 -140,35 -275,60 -11,2 -42,7 -70,10 -27,4 -61,9 -75,11 -87,14 -208,25 -313,31 -144,7 -247,10 -250,8 z m 313,-698 c 30,-3 78,-9 105,-12 43,-4 202,-31 299,-49 73,-14 323,-85 386,-110 346,-135 488,-207 729,-369 597,-400 1060,-1020 1270,-1701 199,-647 196,-1326 -11,-1965 -180,-557 -509,-1054 -948,-1434 -127,-110 -316,-249 -430,-316 -19,-11 -48,-29 -65,-40 -59,-37 -393,-199 -413,-200 -4,-1 -25,-9 -47,-20 -22,-11 -45,-19 -52,-20 -6,0 -24,-5 -40,-12 -15,-6 -30,-12 -33,-13 -3,-1 -12,-4 -20,-8 -31,-12 -116,-37 -140,-41 -14,-3 -26,-5 -27,-7 -4,-2 -11,-4 -58,-14 -56,-13 -55,-12 -57,-15 -3,-2 -20,-5 -63,-13 -16,-3 -55,-11 -85,-17 -76,-16 -88,-18 -142,-24 -27,-3 -67,-8 -90,-11 -113,-15 -539,-22 -590,-11 -13,3 -51,8 -86,11 -141,11 -308,40 -466,82 -32,8 -71,17 -85,19 -37,7 -305,101 -369,130 -29,13 -55,24 -58,24 -3,0 -67,31 -142,68 -161,81 -258,139 -432,259 -186,129 -426,351 -586,543 -401,480 -627,991 -729,1640 -23,142 -31,559 -16,727 84,897 514,1684 1230,2255 61,48 286,201 336,228 22,12 55,30 73,41 61,36 287,147 312,154 9,3 45,17 65,26 66,29 323,112 383,124 10,2 18,4 20,4 1,1 4,1 7,2 2,0 19,5 37,10 18,5 48,12 67,15 48,8 70,12 89,18 9,3 37,7 62,10 25,4 56,8 70,11 48,9 106,15 195,21 50,3 91,7 93,9 5,5 400,-3 452,-9 z"
       id="path4576"
       inkscape:connector-curvature="0" />
  </g>
</svg>
