<?xml version="1.0" encoding="UTF-8" standalone="no"?>
<svg
   xmlns:dc="http://purl.org/dc/elements/1.1/"
   xmlns:cc="http://creativecommons.org/ns#"
   xmlns:rdf="http://www.w3.org/1999/02/22-rdf-syntax-ns#"
   xmlns:svg="http://www.w3.org/2000/svg"
   xmlns="http://www.w3.org/2000/svg"
   xmlns:sodipodi="http://sodipodi.sourceforge.net/DTD/sodipodi-0.dtd"
   xmlns:inkscape="http://www.inkscape.org/namespaces/inkscape"
   version="1.0"
   width="75.000015pt"
   height="61.648796pt"
   viewBox="0 0 75.000015 61.648796"
   preserveAspectRatio="xMidYMid meet"
   id="svg5648"
   sodipodi:docname="pulgarAbajo.svg"
   inkscape:version="0.92.2 2405546, 2018-03-11">
  <defs
     id="defs5652" />
  <sodipodi:namedview
     pagecolor="#ffffff"
     bordercolor="#666666"
     borderopacity="1"
     objecttolerance="10"
     gridtolerance="10"
     guidetolerance="10"
     inkscape:pageopacity="0"
     inkscape:pageshadow="2"
     inkscape:window-width="1920"
     inkscape:window-height="1027"
     id="namedview5650"
     showgrid="false"
     inkscape:zoom="0.59957224"
     inkscape:cx="853.33733"
     inkscape:cy="701.73327"
     inkscape:window-x="0"
     inkscape:window-y="0"
     inkscape:window-maximized="1"
     inkscape:current-layer="svg5648" />
  <metadata
     id="metadata5640">
Created by potrace 1.15, written by Peter Selinger 2001-2017
<rdf:RDF>
  <cc:Work
     rdf:about="">
    <dc:format>image/svg+xml</dc:format>
    <dc:type
       rdf:resource="http://purl.org/dc/dcmitype/StillImage" />
    <dc:title></dc:title>
  </cc:Work>
</rdf:RDF>
</metadata>
  <g
     transform="matrix(0.0058609,0,0,-0.0058609,1.75827e-4,61.631213)"
     id="g5646"
     style="fill:#000000;stroke:none">
    <path
       d="m 9050,10514 c -36,-2 -216,-8 -400,-14 -1096,-36 -1860,-113 -2444,-250 -46,-11 -344,-67 -662,-125 -317,-58 -651,-120 -743,-138 l -166,-32 -6,-500 c -4,-275 -9,-1330 -12,-2345 l -5,-1845 112,-1 c 312,-1 566,-165 858,-554 142,-191 269,-342 513,-615 451,-504 614,-722 779,-1035 33,-63 97,-171 141,-240 220,-337 295,-494 440,-910 46,-129 106,-298 135,-375 60,-160 112,-361 135,-517 8,-59 24,-227 35,-375 25,-337 39,-494 45,-504 3,-4 31,-22 62,-40 32,-18 74,-48 95,-67 l 39,-35 112,6 c 313,16 580,139 818,376 162,163 277,350 343,560 15,46 40,165 56,263 97,590 46,853 -277,1423 -87,154 -150,288 -189,405 -29,87 -22,178 26,380 23,96 44,178 46,181 2,4 34,13 71,20 48,10 141,14 318,13 1768,-11 2157,4 2595,98 73,15 113,31 174,66 298,177 533,492 666,892 35,103 40,132 35,170 -15,101 -57,184 -236,465 -90,143 -123,229 -123,330 -1,71 3,88 31,146 18,36 63,99 101,141 143,157 183,240 190,398 9,213 -66,374 -274,590 -112,116 -137,156 -154,249 -20,112 5,218 110,461 87,199 113,301 108,408 -7,150 -49,216 -307,485 -248,259 -316,361 -348,526 -14,72 -15,95 -4,174 25,174 12,284 -50,416 -82,178 -242,341 -558,571 -167,121 -340,190 -611,244 -252,51 -370,58 -985,61 -313,1 -599,1 -635,-1 z"
       id="path5642"
       inkscape:connector-curvature="0" />
    <path
       d="m 331,10264 c -30,-8 -76,-26 -102,-41 C 170,10192 81,10100 51,10042 -3,9936 0,10067 0,7650 0,6180 4,5400 11,5371 c 38,-167 186,-308 358,-341 74,-14 3338,-14 3412,0 165,31 301,152 350,311 18,59 19,130 19,2307 0,1840 -3,2256 -14,2297 -40,152 -152,268 -303,315 -64,20 -90,20 -1757,19 -1445,0 -1699,-2 -1745,-15 z"
       id="path5644"
       inkscape:connector-curvature="0" />
  </g>
</svg>
